<svg xmlns="http://www.w3.org/2000/svg" viewBox="0 0 640 640" fill="none" role="img" aria-labelledby="liteduckMascotTitle liteduckMascotDesc">
  <title id="liteduckMascotTitle">LiteDuck mascot</title>
  <desc id="liteduckMascotDesc">A futuristic duck mascot encircled by a neon loop ring with a coding panel on its chest.</desc>

  <defs>
    <linearGradient id="liteduck-loop-back" x1="120" y1="122" x2="546" y2="306" gradientUnits="userSpaceOnUse">
      <stop offset="0" stop-color="#6D28D9"/>
      <stop offset="0.52" stop-color="#8B5CF6"/>
      <stop offset="1" stop-color="#52E7FF"/>
    </linearGradient>
    <linearGradient id="liteduck-loop-front" x1="520" y1="520" x2="112" y2="416" gradientUnits="userSpaceOnUse">
      <stop offset="0" stop-color="#52E7FF"/>
      <stop offset="0.5" stop-color="#38BDF8"/>
      <stop offset="1" stop-color="#6D28D9"/>
    </linearGradient>
    <radialGradient id="liteduck-halo" cx="0" cy="0" r="1" gradientUnits="userSpaceOnUse" gradientTransform="translate(326 196) rotate(90) scale(170 170)">
      <stop offset="0" stop-color="#8B5CF6" stop-opacity="0.42"/>
      <stop offset="0.6" stop-color="#38BDF8" stop-opacity="0.12"/>
      <stop offset="1" stop-color="#38BDF8" stop-opacity="0"/>
    </radialGradient>
    <radialGradient id="liteduck-head-fill" cx="0" cy="0" r="1" gradientUnits="userSpaceOnUse" gradientTransform="translate(282 146) rotate(49.04) scale(238.17 239.859)">
      <stop offset="0" stop-color="#FFF9E4"/>
      <stop offset="0.58" stop-color="#F8D667"/>
      <stop offset="1" stop-color="#E6A91B"/>
    </radialGradient>
    <linearGradient id="liteduck-body-fill" x1="176" y1="276" x2="467" y2="503" gradientUnits="userSpaceOnUse">
      <stop offset="0" stop-color="#FFE8A3"/>
      <stop offset="0.55" stop-color="#F8C543"/>
      <stop offset="1" stop-color="#D38A14"/>
    </linearGradient>
    <linearGradient id="liteduck-wing-fill" x1="168" y1="344" x2="488" y2="432" gradientUnits="userSpaceOnUse">
      <stop offset="0" stop-color="#F4B83B"/>
      <stop offset="1" stop-color="#CD7B14"/>
    </linearGradient>
    <linearGradient id="liteduck-beak-fill" x1="232" y1="222" x2="410" y2="339" gradientUnits="userSpaceOnUse">
      <stop offset="0" stop-color="#FFB54C"/>
      <stop offset="0.5" stop-color="#FF9233"/>
      <stop offset="1" stop-color="#F7630C"/>
    </linearGradient>
    <linearGradient id="liteduck-visor-fill" x1="213" y1="143" x2="430" y2="248" gradientUnits="userSpaceOnUse">
      <stop offset="0" stop-color="#111827"/>
      <stop offset="0.55" stop-color="#1D2942"/>
      <stop offset="1" stop-color="#0F172A"/>
    </linearGradient>
    <linearGradient id="liteduck-eye-fill" x1="252" y1="172" x2="387" y2="218" gradientUnits="userSpaceOnUse">
      <stop offset="0" stop-color="#B9FFF5"/>
      <stop offset="0.5" stop-color="#52E7FF"/>
      <stop offset="1" stop-color="#34D399"/>
    </linearGradient>
    <linearGradient id="liteduck-panel-fill" x1="236" y1="332" x2="410" y2="458" gradientUnits="userSpaceOnUse">
      <stop offset="0" stop-color="#0F172A"/>
      <stop offset="0.55" stop-color="#18243E"/>
      <stop offset="1" stop-color="#0B1221"/>
    </linearGradient>
    <linearGradient id="liteduck-panel-glow" x1="252" y1="357" x2="389" y2="377" gradientUnits="userSpaceOnUse">
      <stop offset="0" stop-color="#A78BFA"/>
      <stop offset="1" stop-color="#38BDF8"/>
    </linearGradient>
    <linearGradient id="liteduck-feather-fill" x1="270" y1="28" x2="401" y2="122" gradientUnits="userSpaceOnUse">
      <stop offset="0" stop-color="#FFF6C9"/>
      <stop offset="1" stop-color="#F7B733"/>
    </linearGradient>
    <filter id="liteduck-shadow" x="72" y="18" width="496" height="560" filterUnits="userSpaceOnUse" color-interpolation-filters="sRGB">
      <feDropShadow dx="0" dy="18" stdDeviation="18" flood-color="#040814" flood-opacity="0.28"/>
    </filter>
    <filter id="liteduck-eye-glow" x="244" y="166" width="155" height="58" filterUnits="userSpaceOnUse" color-interpolation-filters="sRGB">
      <feGaussianBlur stdDeviation="4" result="blur"/>
      <feMerge>
        <feMergeNode in="blur"/>
        <feMergeNode in="SourceGraphic"/>
      </feMerge>
    </filter>
  </defs>

  <g filter="url(#liteduck-shadow)">
    <ellipse cx="320" cy="555" rx="174" ry="26" fill="#0B1120" fill-opacity="0.22"/>
    <circle cx="326" cy="204" r="165" fill="url(#liteduck-halo)"/>

    <path
      d="M120 322C120 196 211 104 322 104C418 104 501 174 527 270"
      stroke="url(#liteduck-loop-back)"
      stroke-width="34"
      stroke-linecap="round"
    />
    <path d="M502 244L542 280L489 291L502 244Z" fill="#56E4FF"/>

    <g stroke="#31214F" stroke-width="8" stroke-linecap="round" stroke-linejoin="round">
      <path d="M287 121C270 98 268 61 294 32C302 65 302 96 287 121Z" fill="url(#liteduck-feather-fill)"/>
      <path d="M323 112C312 76 322 44 348 22C355 60 348 90 333 113Z" fill="url(#liteduck-feather-fill)"/>
      <path d="M357 121C361 90 382 63 411 54C403 89 389 110 357 121Z" fill="url(#liteduck-feather-fill)"/>

      <ellipse cx="320" cy="389" rx="170" ry="122" fill="url(#liteduck-body-fill)"/>
      <path d="M210 351C173 369 151 406 157 445C197 439 229 418 250 386C247 373 236 358 210 351Z" fill="url(#liteduck-wing-fill)"/>
      <path d="M430 351C467 369 489 406 483 445C443 439 411 418 390 386C393 373 404 358 430 351Z" fill="url(#liteduck-wing-fill)"/>

      <ellipse cx="320" cy="213" rx="132" ry="118" fill="url(#liteduck-head-fill)"/>

      <path d="M213 174C229 152 272 140 320 140C368 140 411 152 427 174V209C411 231 368 243 320 243C272 243 229 231 213 209V174Z" fill="url(#liteduck-visor-fill)"/>
      <path d="M236 171C255 159 286 152 320 152C354 152 385 159 404 171" opacity="0.45" stroke="#9FB7FF"/>

      <g filter="url(#liteduck-eye-glow)" stroke="none">
        <ellipse cx="278" cy="194" rx="24" ry="18" fill="url(#liteduck-eye-fill)"/>
        <ellipse cx="362" cy="194" rx="24" ry="18" fill="url(#liteduck-eye-fill)"/>
      </g>
      <circle cx="287" cy="189" r="5" fill="#F8FAFC" stroke="none"/>
      <circle cx="371" cy="189" r="5" fill="#F8FAFC" stroke="none"/>

      <path d="M228 249C255 221 288 205 320 205C352 205 385 221 412 249C383 265 352 273 320 273C288 273 257 265 228 249Z" fill="url(#liteduck-beak-fill)"/>
      <path d="M240 276C265 293 292 302 320 302C348 302 375 293 400 276C390 321 359 347 320 347C281 347 250 321 240 276Z" fill="url(#liteduck-beak-fill)"/>
      <path d="M294 247C299 242 305 240 312 240" stroke="#91400E"/>
      <path d="M328 240C335 240 341 242 346 247" stroke="#91400E"/>
      <path d="M290 315C299 320 309 323 320 323C331 323 341 320 350 315" stroke="#91400E"/>

      <path d="M233 319C257 302 287 293 320 293C353 293 383 302 407 319" fill="none"/>

      <rect x="236" y="332" width="168" height="118" rx="34" fill="url(#liteduck-panel-fill)"/>
      <rect x="253" y="355" width="134" height="18" rx="9" fill="url(#liteduck-panel-glow)" fill-opacity="0.18" stroke="none"/>
      <path d="M284 389L263 410L284 431" stroke="#5EEAD4"/>
      <path d="M314 381L301 440" stroke="#A78BFA"/>
      <path d="M336 431H377" stroke="#52E7FF"/>

      <path d="M268 457C280 470 298 478 320 478C342 478 360 470 372 457" fill="none"/>
    </g>

    <path
      d="M521 329C508 439 420 520 320 520C214 520 128 441 119 334"
      stroke="url(#liteduck-loop-front)"
      stroke-width="34"
      stroke-linecap="round"
    />
    <path d="M149 307L101 339L156 357L149 307Z" fill="#7C3AED"/>

    <circle cx="165" cy="160" r="7" fill="#A78BFA" fill-opacity="0.7"/>
    <circle cx="484" cy="145" r="6" fill="#52E7FF" fill-opacity="0.85"/>
    <path d="M466 110C472 126 478 132 494 138C478 144 472 150 466 166C460 150 454 144 438 138C454 132 460 126 466 110Z" fill="#F8FAFC" fill-opacity="0.92"/>
  </g>
</svg>
